<svg xmlns="http://www.w3.org/2000/svg" width="68" height="20" fill="none"><path fill="#fff" d="M6.78 19.3c-1.3 0-2.28-.35-2.94-1.05-.64-.72-.96-1.6-.96-2.64V6.67H.51l.27-2.49h2.1V.67L6 .37v3.81h3.63v2.49H6v7.35c0 .92.05 1.56.15 1.92.12.34.35.56.69.66.34.1.98.15 1.92.15h.81l-.24 2.55H6.78Zm11.367 0c-1.7 0-3.16-.35-4.38-1.05-1.2-.7-2.11-1.64-2.73-2.82-.6-1.18-.9-2.5-.9-3.96 0-1.38.28-2.64.84-3.78a6.778 6.778 0 0 1 2.49-2.76c1.1-.68 2.4-1.02 3.9-1.02 1.96 0 3.52.58 4.68 1.74 1.16 1.14 1.74 2.67 1.74 4.59 0 .52-.06 1.08-.18 1.68h-10.26c.2 1.66.75 2.86 1.65 3.6.92.74 2.08 1.11 3.48 1.11 1.58 0 3.03-.34 4.35-1.02l.3 2.55c-1.6.76-3.26 1.14-4.98 1.14Zm2.43-9.51c0-.94-.27-1.71-.81-2.31-.54-.6-1.35-.9-2.43-.9-2.02 0-3.29 1.07-3.81 3.21h7.05Zm8.27 9.51c-1.3 0-2.37-.4-3.21-1.2-.82-.8-1.23-1.85-1.23-3.15 0-1.3.45-2.34 1.35-3.12.92-.78 2.03-1.33 3.33-1.65 1.3-.34 2.62-.52 3.96-.54-.02-1.14-.27-1.92-.75-2.34-.46-.44-1.21-.66-2.25-.66-.64 0-1.28.1-1.92.3-.62.18-1.31.5-2.07.96l-.36-2.55c.74-.46 1.55-.81 2.43-1.05.9-.26 1.82-.39 2.76-.39 1.84 0 3.18.5 4.02 1.5.84 1 1.26 2.7 1.26 5.1v3.45c0 .78.03 1.36.09 1.74.08.38.22.65.42.81.22.16.56.24 1.02.24h.36l-.36 2.55h-.69c-1.04 0-1.83-.16-2.37-.48-.52-.32-.94-.82-1.26-1.5-.54.62-1.2 1.11-1.98 1.47-.78.34-1.63.51-2.55.51Zm.96-2.46c.58 0 1.16-.14 1.74-.42.6-.28 1.1-.67 1.5-1.17v-3.48c-3.6.12-5.4 1.13-5.4 3.03 0 1.36.72 2.04 2.16 2.04ZM56.277 3.91c1.92 0 3.36.56 4.32 1.68.96 1.12 1.44 2.75 1.44 4.89V19h-3.15v-8.4c0-1.4-.25-2.42-.75-3.06-.5-.64-1.31-.96-2.43-.96-2.32 0-3.48 1.33-3.48 3.99V19h-3.15v-8.1c0-1.56-.27-2.67-.81-3.33-.54-.66-1.34-.99-2.4-.99-1.54 0-2.7.54-3.48 1.62V19h-3.12V4.18h2.55l.24 1.41c1.36-1.12 2.87-1.68 4.53-1.68 2.12 0 3.64.85 4.56 2.55 1.08-1.7 2.79-2.55 5.13-2.55Z"/><path fill="#0BCBFF" d="M64.227 15.43h3.54V19h-3.54v-3.57Z"/></svg>