<svg xmlns="http://www.w3.org/2000/svg" width="120" height="25" fill="none"><g fill="#FFB71A" clip-path="url(#a)"><path d="m12 18.315 4.15 2.576c.76.472 1.69-.226 1.49-1.108l-1.1-4.843 3.67-3.263c.67-.595.31-1.724-.57-1.796l-4.83-.42-1.89-4.576a.99.99 0 0 0-1.84 0L9.19 9.45l-4.83.421c-.88.072-1.24 1.2-.57 1.796l3.67 3.263-1.1 4.842c-.2.883.73 1.58 1.49 1.109L12 18.315ZM84 18.315l4.15 2.576c.76.472 1.69-.226 1.49-1.108l-1.1-4.843 3.67-3.263c.67-.595.31-1.724-.57-1.796l-4.83-.42-1.89-4.576a.99.99 0 0 0-1.84 0L81.19 9.45l-4.83.421c-.88.072-1.24 1.2-.57 1.796l3.67 3.263-1.1 4.842c-.2.883.73 1.58 1.49 1.109L84 18.315ZM60 18.315l4.15 2.576c.76.472 1.69-.226 1.49-1.108l-1.1-4.843 3.67-3.263c.67-.595.31-1.724-.57-1.796l-4.83-.42-1.89-4.576a.99.99 0 0 0-1.84 0L57.19 9.45l-4.83.421c-.88.072-1.24 1.2-.57 1.796l3.67 3.263-1.1 4.842c-.2.883.73 1.58 1.49 1.109L60 18.315ZM36 18.315l4.15 2.576c.76.472 1.69-.226 1.49-1.108l-1.1-4.843 3.67-3.263c.67-.595.31-1.724-.57-1.796l-4.83-.42-1.89-4.576a.99.99 0 0 0-1.84 0L33.19 9.45l-4.83.421c-.88.072-1.24 1.2-.57 1.796l3.67 3.263-1.1 4.842c-.2.883.73 1.58 1.49 1.109L36 18.315ZM108 18.315l4.15 2.576c.76.472 1.69-.226 1.49-1.108l-1.1-4.843 3.67-3.263c.67-.595.31-1.724-.57-1.796l-4.83-.42-1.89-4.576a.99.99 0 0 0-1.84 0l-1.89 4.565-4.83.421c-.88.072-1.24 1.2-.57 1.796l3.67 3.263-1.1 4.842c-.2.883.73 1.58 1.49 1.109l4.15-2.566Z"/></g><defs><clipPath id="a"><path fill="#fff" d="M0 .34h120v24.625H0z"/></clipPath></defs></svg>